<mxfile host="app.diagrams.net" agent="Mozilla/5.0 (iPad; CPU OS 18_1_1 like Mac OS X) AppleWebKit/605.1.15 (KHTML, like Gecko) CriOS/134.0.6998.99 Mobile/15E148 Safari/604.1" version="26.1.2">
  <diagram name="Page-1" id="oGITJ56X4c4uDML92NMq">
    <mxGraphModel dx="1150" dy="1321" grid="0" gridSize="10" guides="1" tooltips="1" connect="1" arrows="1" fold="1" page="0" pageScale="1" pageWidth="850" pageHeight="1100" math="0" shadow="0">
      <root>
        <mxCell id="0" />
        <mxCell id="1" parent="0" />
        <mxCell id="DT5o_Z7IDblNrw20LdmK-1" value="&lt;ol&gt;&lt;li&gt;Packets&lt;/li&gt;&lt;li style=&quot;&quot;&gt;Sent/received to who&lt;/li&gt;&lt;li style=&quot;&quot;&gt;Geolocation&lt;/li&gt;&lt;/ol&gt;" style="rounded=0;whiteSpace=wrap;html=1;align=left;" vertex="1" parent="1">
          <mxGeometry x="-69" y="-502.5" width="161" height="93" as="geometry" />
        </mxCell>
        <mxCell id="DT5o_Z7IDblNrw20LdmK-3" value="" style="edgeStyle=none;curved=1;rounded=0;orthogonalLoop=1;jettySize=auto;html=1;fontSize=12;startSize=8;endSize=8;strokeColor=none;" edge="1" parent="1" source="DT5o_Z7IDblNrw20LdmK-2" target="DT5o_Z7IDblNrw20LdmK-1">
          <mxGeometry relative="1" as="geometry" />
        </mxCell>
        <mxCell id="DT5o_Z7IDblNrw20LdmK-2" value="Communication&amp;nbsp;" style="text;strokeColor=none;fillColor=none;html=1;align=center;verticalAlign=middle;whiteSpace=wrap;rounded=0;fontSize=16;" vertex="1" parent="1">
          <mxGeometry x="-69" y="-533" width="162" height="30" as="geometry" />
        </mxCell>
        <mxCell id="DT5o_Z7IDblNrw20LdmK-4" value="&lt;ol&gt;&lt;li style=&quot;text-align: left;&quot;&gt;Relationships&lt;/li&gt;&lt;li style=&quot;text-align: left;&quot;&gt;Orphans&lt;/li&gt;&lt;/ol&gt;" style="rounded=0;whiteSpace=wrap;html=1;" vertex="1" parent="1">
          <mxGeometry x="368" y="-502.5" width="160" height="80" as="geometry" />
        </mxCell>
        <mxCell id="DT5o_Z7IDblNrw20LdmK-5" value="ProcessTree" style="text;strokeColor=none;fillColor=none;html=1;align=center;verticalAlign=middle;whiteSpace=wrap;rounded=0;fontSize=16;" vertex="1" parent="1">
          <mxGeometry x="368" y="-539" width="161" height="36" as="geometry" />
        </mxCell>
        <mxCell id="DT5o_Z7IDblNrw20LdmK-6" value="&lt;ol&gt;&lt;li&gt;Show offset, hex and utf8 data&lt;/li&gt;&lt;li&gt;Search for strings/data&lt;/li&gt;&lt;li style=&quot;&quot;&gt;Jump to offset&lt;/li&gt;&lt;/ol&gt;" style="rounded=0;whiteSpace=wrap;html=1;align=left;" vertex="1" parent="1">
          <mxGeometry x="-69" y="-215" width="160" height="80" as="geometry" />
        </mxCell>
        <mxCell id="DT5o_Z7IDblNrw20LdmK-7" value="Hex Viewer" style="text;strokeColor=none;fillColor=none;html=1;align=center;verticalAlign=middle;whiteSpace=wrap;rounded=0;fontSize=16;" vertex="1" parent="1">
          <mxGeometry x="-55" y="-245" width="125" height="30" as="geometry" />
        </mxCell>
        <mxCell id="DT5o_Z7IDblNrw20LdmK-8" value="&lt;ol&gt;&lt;li style=&quot;text-align: left;&quot;&gt;Memory dumps&lt;/li&gt;&lt;li style=&quot;text-align: left;&quot;&gt;Physical files&lt;/li&gt;&lt;li style=&quot;text-align: left;&quot;&gt;Extracted Strings&lt;/li&gt;&lt;/ol&gt;" style="rounded=0;whiteSpace=wrap;html=1;" vertex="1" parent="1">
          <mxGeometry x="368" y="-215" width="160" height="80" as="geometry" />
        </mxCell>
        <mxCell id="DT5o_Z7IDblNrw20LdmK-9" value="Files" style="text;strokeColor=none;fillColor=none;html=1;align=center;verticalAlign=middle;whiteSpace=wrap;rounded=0;fontSize=16;" vertex="1" parent="1">
          <mxGeometry x="367" y="-247" width="161" height="30" as="geometry" />
        </mxCell>
        <mxCell id="DT5o_Z7IDblNrw20LdmK-10" value="&lt;div style=&quot;text-align: left;&quot;&gt;&lt;ol&gt;&lt;li&gt;Languages: Yara, Assembler, C&lt;br&gt;&lt;/li&gt;&lt;li&gt;New: Yara&lt;br&gt;&lt;/li&gt;&lt;li&gt;Syntax highlighting, autocomplete&amp;nbsp;&lt;br&gt;&lt;/li&gt;&lt;/ol&gt;&lt;/div&gt;" style="rounded=0;whiteSpace=wrap;html=1;" vertex="1" parent="1">
          <mxGeometry x="169" y="-350" width="160" height="80" as="geometry" />
        </mxCell>
        <mxCell id="DT5o_Z7IDblNrw20LdmK-11" value="Code Editor" style="text;strokeColor=none;fillColor=none;html=1;align=center;verticalAlign=middle;whiteSpace=wrap;rounded=0;fontSize=16;" vertex="1" parent="1">
          <mxGeometry x="169" y="-371" width="163" height="21" as="geometry" />
        </mxCell>
      </root>
    </mxGraphModel>
  </diagram>
</mxfile>
